<?xml version="1.0" encoding="UTF-8" standalone="no"?>
<!-- Created with Inkscape (http://www.inkscape.org/) -->

<svg
   width="169.28639mm"
   height="56.735672mm"
   viewBox="0 0 169.28639 56.735673"
   version="1.1"
   id="svg5"
   xml:space="preserve"
   inkscape:version="1.2.1 (9c6d41e410, 2022-07-14)"
   sodipodi:docname="logo.svg"
   xmlns:inkscape="http://www.inkscape.org/namespaces/inkscape"
   xmlns:sodipodi="http://sodipodi.sourceforge.net/DTD/sodipodi-0.dtd"
   xmlns="http://www.w3.org/2000/svg"
   xmlns:svg="http://www.w3.org/2000/svg"><sodipodi:namedview
     id="namedview7"
     pagecolor="#ffffff"
     bordercolor="#666666"
     borderopacity="1.0"
     inkscape:showpageshadow="2"
     inkscape:pageopacity="0.0"
     inkscape:pagecheckerboard="0"
     inkscape:deskcolor="#d1d1d1"
     inkscape:document-units="mm"
     showgrid="false"
     inkscape:zoom="1.1893044"
     inkscape:cx="326.24112"
     inkscape:cy="246.3625"
     inkscape:window-width="1920"
     inkscape:window-height="1009"
     inkscape:window-x="1432"
     inkscape:window-y="-8"
     inkscape:window-maximized="1"
     inkscape:current-layer="layer1" /><defs
     id="defs2"><inkscape:path-effect
       effect="bspline"
       id="path-effect364"
       is_visible="true"
       lpeversion="1"
       weight="33.333333"
       steps="2"
       helper_size="0"
       apply_no_weight="true"
       apply_with_weight="true"
       only_selected="false" /><inkscape:path-effect
       effect="bspline"
       id="path-effect364-3"
       is_visible="true"
       lpeversion="1"
       weight="33.333333"
       steps="2"
       helper_size="0"
       apply_no_weight="true"
       apply_with_weight="true"
       only_selected="false" /></defs><g
     inkscape:label="Capa 1"
     inkscape:groupmode="layer"
     id="layer1"
     transform="translate(-5.9251425,-101.74008)"><path
       style="fill:#c89361;fill-opacity:1;stroke-width:0.264583"
       d="m 78.638625,158.39055 c -8.862536,-1.06946 -16.550309,-3.65965 -24.16742,-8.14256 -3.815643,-2.24563 -10.785522,-7.63235 -10.388803,-8.02906 0.06865,-0.0686 1.406281,0.67961 2.972525,1.66279 12.037938,7.5566 25.183012,11.3407 37.801406,10.88197 8.588078,-0.3122 16.015357,-2.26313 23.321747,-6.12592 2.79897,-1.47978 3.44929,-1.8957 11.47096,-7.33644 16.42378,-11.13953 31.67439,-18.05788 45.11145,-20.46453 2.89383,-0.5183 10.45105,-0.85007 10.45105,-0.45882 0,0.15802 -0.9665,0.28109 -2.35953,0.30045 -11.59871,0.16122 -28.32925,6.90622 -45.66235,18.409 -2.03729,1.35201 -6.0522,4.17102 -8.92202,6.26448 -2.86983,2.09345 -6.65495,4.62808 -8.41139,5.63251 -5.88969,3.36805 -12.505737,5.83198 -18.517626,6.8963 -2.413227,0.42722 -10.645825,0.75772 -12.699999,0.50983 z m 76.479075,-1.48513 c -2.5989,-1.78397 -6.12081,-5.19109 -7.43886,-7.19639 -2.8981,-4.4092 -2.78775,-9.66201 0.30342,-14.44466 1.279,-1.97887 3.33023,-4.1919 5.06729,-5.46702 l 1.27428,-0.93541 1.47015,0.59669 c 1.98233,0.80457 4.11026,2.78912 4.86043,4.53293 1.59265,3.70223 0.67661,8.26294 -2.3466,11.68308 -2.10083,2.37665 -2.49298,3.31847 -2.62326,6.30012 -0.12074,2.76333 0.11015,3.84505 1.14669,5.37249 0.3505,0.51648 0.55156,0.9326 0.4468,0.92471 -0.10475,-0.008 -1.07691,-0.62284 -2.16034,-1.36654 z m -58.090534,-9.85916 c -5.031565,-1.10952 -8.476057,-3.56742 -10.388658,-7.41307 -1.606219,-3.22961 -1.511445,-9.30281 0.234085,-15.0006 l 0.592095,-1.93274 0.195942,1.26167 c 0.285576,1.83879 1.178851,3.48871 2.772633,5.12116 1.678371,1.71909 2.922164,2.31076 5.972085,2.84089 2.686317,0.46693 4.375492,1.25775 6.210452,2.90754 3.45788,3.10893 4.2026,7.92236 1.79707,11.6151 l -0.64634,0.99218 -2.57593,-0.021 c -1.416763,-0.0116 -3.290309,-0.17856 -4.163434,-0.3711 z M 31.734154,146.0098 c -4.816085,-1.31575 -10.388693,-8.84638 -12.616064,-17.04891 -0.944234,-3.47724 -1.235458,-4.10531 -2.435536,-5.25262 -1.855488,-1.7739 -3.89827,-1.87956 -8.871187,-0.45886 -0.4153677,0.11867 -0.7726964,-0.0265 -1.2567708,-0.51058 -0.8410919,-0.84109 -0.8404111,-0.99407 0.00892,-2.00344 0.9049525,-1.07547 3.6200858,-2.57122 6.4179238,-3.5356 1.970369,-0.67916 2.633167,-0.77857 5.184744,-0.77766 5.116462,0.002 10.27964,1.30931 15.890154,4.02391 5.792179,2.80249 10.306648,6.63323 12.092707,10.26124 1.748396,3.55149 0.897464,7.35515 -2.378279,10.63089 -3.67316,3.67316 -8.63804,5.60013 -12.036608,4.67163 z"
       id="path248" /><path
       style="fill:#c89361;fill-opacity:0.724359;stroke:none;stroke-width:0.264583px;stroke-linecap:butt;stroke-linejoin:miter;stroke-opacity:1"
       d="m 47.658726,136.82674 c 0.401372,-0.80968 1.204182,-2.42916 1.601986,-3.77693 0.397805,-1.34777 0.390545,-2.42394 0.344457,-3.19999 -0.04609,-0.77605 -0.131056,-1.25195 -0.528544,-2.09527 -0.397489,-0.84331 -1.107596,-2.05398 -2.344792,-3.52305 -1.237196,-1.46907 -3.001475,-3.19638 -4.961811,-4.63024 -1.960336,-1.43386 -4.116659,-2.5741 -5.972453,-3.37376 -1.855794,-0.79966 -3.410956,-1.25862 -4.383371,-1.53566 -0.972415,-0.27704 -1.362038,-0.37213 -1.961682,-0.77775 -0.599644,-0.40562 -1.409254,-1.12191 -1.843915,-2.33414 -0.434661,-1.21224 -0.494089,-2.92039 -0.279163,-4.28912 0.214926,-1.36872 0.704264,-2.3978 0.982296,-3.08147 0.278032,-0.68368 0.34473,-1.02201 0.23093,-1.43349 -0.113801,-0.41148 -0.408325,-0.89619 -0.954597,-1.01117 -0.546271,-0.11497 -1.344217,0.14015 -2.383888,1.46112 -1.039671,1.32097 -2.320789,3.70753 -3.072856,5.36856 -0.752066,1.66102 -0.975053,2.59632 -1.117795,3.49568 -0.142742,0.89937 -0.205261,1.76269 -0.143638,2.17187 0.06162,0.40917 0.247188,0.36449 1.032555,0.41065 0.785366,0.0461 2.170377,0.18307 3.819495,0.59355 1.649118,0.41048 3.562196,1.0944 5.354156,1.852 1.79196,0.75761 3.462689,1.58879 5.012831,2.48057 1.550143,0.89177 2.979614,1.84402 4.214856,2.73567 1.235243,0.89165 2.276202,1.72262 3.170883,2.59998 0.894682,0.87735 1.643097,1.80099 2.30038,2.70772 0.657283,0.90673 1.223437,1.79647 1.630723,2.71891 0.407286,0.92245 0.655805,1.87757 0.737303,2.74694 0.0815,0.86936 -0.0039,1.653 -0.179375,2.39347 -0.175461,0.74046 -0.44093,1.43781 -0.573638,1.78642 -0.132708,0.3486 -0.132705,0.3486 0.268667,-0.46107 z"
       id="path362-7"
       inkscape:path-effect="#path-effect364-3"
       inkscape:original-d="m 47.257354,137.63641 c 0.803061,-1.61919 1.605868,-3.23867 2.408421,-4.85842 -0.007,-1.07595 -0.01427,-2.15212 -0.02178,-3.2286 -0.08472,-0.47565 -0.169682,-0.95156 -0.254904,-1.42774 -0.709887,-1.21045 -1.419997,-2.42112 -2.130379,-3.63211 -1.764093,-1.72709 -3.528369,-3.4544 -5.292936,-5.18202 -2.156149,-1.14001 -4.312468,-2.28026 -6.469081,-3.42079 -1.554973,-0.45871 -3.110138,-0.91766 -4.665587,-1.37691 -0.389379,-0.0948 -0.778995,-0.18992 -1.168873,-0.28528 -0.809388,-0.71604 -1.618996,-1.43233 -2.428874,-2.1489 -0.05918,-1.70794 -0.118606,-3.41609 -0.178288,-5.12455 0.489608,-1.02883 0.978943,-2.05791 1.468035,-3.08728 0.06695,-0.33807 0.133652,-0.6764 0.200098,-1.01501 -0.29428,-0.48445 -0.588804,-0.96916 -0.883585,-1.45415 -0.797723,0.2554 -1.595668,0.51052 -2.393882,0.76537 -1.280919,2.38694 -2.562039,4.7735 -3.843438,7.15984 -0.222743,0.93561 -0.44573,1.87091 -0.668974,2.80595 -0.06227,0.86364 -0.124782,1.72696 -0.187562,2.59002 0.185826,-0.0444 0.371388,-0.0891 0.556702,-0.13405 1.385321,0.13718 2.770331,0.27411 4.155116,0.41076 1.913413,0.68424 3.826496,1.36815 5.739364,2.05182 1.671048,0.8315 3.341775,1.66269 5.012284,2.49361 1.429784,0.95258 2.859257,1.90483 4.288504,2.85682 1.041254,0.83128 2.08221,1.66225 3.122935,2.49295 0.748696,0.92395 1.497111,1.84759 2.245286,2.77097 0.566429,0.89005 1.132582,1.77979 1.698493,2.66927 0.248776,0.95541 0.497293,1.91053 0.745562,2.86538 -0.08516,0.78395 -0.170571,1.56759 -0.256237,2.35096 -0.265227,0.69765 -0.530695,1.395 -0.796423,2.09209 z" /><text
       xml:space="preserve"
       style="font-style:normal;font-weight:normal;font-size:10.5833px;line-height:1.25;font-family:sans-serif;fill:#000000;fill-opacity:1;stroke:none;stroke-width:0.264583"
       x="65.440681"
       y="101.93644"
       id="text3646"><tspan
         sodipodi:role="line"
         id="tspan3644"
         style="stroke-width:0.264583"
         x="65.440681"
         y="101.93644" /></text><rect
       style="fill:#ffffff;fill-opacity:0.724359;stroke:#c89361;stroke-width:2.269;stroke-linecap:round;stroke-linejoin:round;stroke-dasharray:none;stroke-opacity:1;paint-order:stroke markers fill"
       id="rect3700"
       width="109.4745"
       height="25.220152"
       x="55.768776"
       y="111.76548" /><text
       xml:space="preserve"
       style="font-style:normal;font-weight:normal;font-size:20.2273px;line-height:1.25;font-family:sans-serif;fill:#333333;fill-opacity:1;stroke:none;stroke-width:0.505683"
       x="55.866169"
       y="135.12347"
       id="text4439"
       transform="scale(1.0274028,0.97332808)"><tspan
         sodipodi:role="line"
         id="tspan4437"
         style="font-style:normal;font-variant:normal;font-weight:bold;font-stretch:normal;font-family:serif;-inkscape-font-specification:'serif Bold';stroke-width:0.505683;fill:#333333"
         x="55.866169"
         y="135.12347">Oro Mood</tspan></text></g></svg>
